PathFileType	4	(X/Y/Z)	Patient4_TMGait_0pt7_01_left_50.trc.trc
DataRate	CameraRate	NumFrames	NumMarkers	Units	OrigDataRate	OrigDataStartFrame	OrigNumFrames
89.171974522293	89.171974522293	4	33	mm	89.171974522293	124	       141
Frame#	Time	Sacral			L.Shoulder			Chest			R.Shoulder			Neck			R.ASIS			L.ASIS			R.Thigh.Superior			R.Thigh.Lateral			R.Thigh.Inferior			R.Patella			L.Thigh.Superior			L.Thigh.Lateral			L.Thigh.Inferior			L.Patella			L.Shank.Superior			L.Shank.Lateral			L.Shank.Inferior			R.Shank.Superior			R.Shank.Lateral			R.Shank.Inferior			R.Heel			R.Midfoot.Superior			R.Midfoot.Lateral			R.Toe			L.Heel			L.Midfoot.Lateral			L.Midfoot.Superior			L.Toe			L.Elbow			L.Wrist			R.Elbow			R.Wrist			
		X1	Y1	Z1	X2	Y2	Z2	X3	Y3	Z3	X4	Y4	Z4	X5	Y5	Z5	X6	Y6	Z6	X7	Y7	Z7	X8	Y8	Z8	X9	Y9	Z9	X10	Y10	Z10	X11	Y11	Z11	X12	Y12	Z12	X13	Y13	Z13	X14	Y14	Z14	X15	Y15	Z15	X16	Y16	Z16	X17	Y17	Z17	X18	Y18	Z18	X19	Y19	Z19	X20	Y20	Z20	X21	Y21	Z21	X22	Y22	Z22	X23	Y23	Z23	X24	Y24	Z24	X25	Y25	Z25	X26	Y26	Z26	X27	Y27	Z27	X28	Y28	Z28	X29	Y29	Z29	X30	Y30	Z30	X31	Y31	Z31	X32	Y32	Z32	X33	Y33	Z33	

124	59.499357142857	867.306550658242	1005.920278977120	521.292216838720	1044.367186749201	1420.501779061473	321.976870560585	1164.219859744733	1341.622740522609	467.563796705065	1110.858575923223	1425.320090281740	648.503221330973	1071.689802543284	1480.458963300414	475.407013616827	1094.989799052668	931.803856163085	626.481055625315	1067.093913791222	940.404385941705	351.426791179459	1082.848708496263	718.564504289658	604.039732883319	970.895614808723	631.247282922053	664.404436995661	1027.983100818029	561.706823531228	586.334121788299	1006.179214974332	478.098574435201	590.440724305124	1139.388239096044	765.090223237900	383.197083842920	1090.278262883153	633.864924457464	308.034921299039	1197.398558739390	579.635218705132	366.288036530557	1223.529075766189	514.083068807331	364.580342615687	1208.581021300266	440.867067686142	355.190348320385	1142.313975594329	309.344991604729	310.002144729050	1233.071054733053	212.826696047846	362.501564532770	965.287961019432	397.531608704336	595.645804805446	880.946584596230	303.429685922578	657.318730875768	910.065889127173	204.776709299977	591.149847598863	760.049726375524	46.681127464324	557.202241536307	932.823440568439	96.744209977124	593.100626364708	843.411545507064	37.457428892606	630.381999762561	1051.737587071178	40.089189233738	619.383028243868	1151.572098336941	39.558464828300	406.634653098231	1221.967829940042	41.311157670267	323.057328083692	1297.171797989248	113.144596416777	342.116684048656	1428.163621107533	76.037852517118	309.758606481592	863.369577028036	1118.627418271530	238.823990179550	796.766973485195	868.489823640664	262.966128195629	1258.859620364101	1123.923277959796	757.938917267993	1482.634610495460	1180.211272351025	653.771118225015	
125	59.510571428571	868.402051442192	1004.512213523530	518.188468436109	1044.371569999272	1419.679170023547	319.636299680991	1164.090172234622	1341.271325273927	465.593181031015	1109.524571210802	1424.551866959663	646.388749122492	1070.852478029012	1479.662004135289	473.177433867373	1095.765939241974	930.612041118274	624.627031327544	1069.214428753518	939.010252226462	349.633728019681	1083.163210992520	717.156267913789	602.686124316979	970.316796705692	630.490577996076	662.764283156507	1027.214662548477	560.349131450324	585.066974665228	1004.510775483543	476.393594233427	588.994802731870	1141.361756498966	762.727433026819	382.933055346893	1091.146855403955	631.961405264057	308.353381197243	1197.341087423353	577.119166552740	367.948419358242	1222.093337376194	510.555228775470	366.810344224524	1206.567846455301	437.304016774161	356.776238189212	1138.749529853487	306.717454882395	311.310067437531	1227.303394379177	208.934344976072	364.996982096134	962.342311508054	396.351888199915	594.430341629113	876.689055151376	303.695274301636	656.513420184973	904.171446056402	204.410598370939	590.705205553662	752.256150464550	47.555007873111	557.442575761947	925.290570810365	96.875580677354	593.278506322862	835.639060058074	37.798269741866	630.637513928484	1043.943423545926	39.751433651215	619.468164492880	1141.669662399463	38.333440274383	408.477493056055	1212.536252094302	39.012747292194	325.177328610044	1289.792122595764	108.116320946175	345.684049950910	1420.134535485441	67.303619202368	313.694287297813	862.089041511716	1119.175348260536	236.351910605750	795.161084833877	868.998185338558	261.650321962100	1261.603574495248	1125.722487994263	755.463289968159	1481.430259319325	1191.848584439266	650.000333271014	
126	59.521785714286	869.412767713662	1003.398039806402	515.142563801101	1044.540625525760	1419.005097110133	317.183664331282	1164.093323432381	1341.050007312257	463.533859775490	1108.401180783449	1423.996293916009	644.176234547586	1070.247016222745	1479.076902896112	470.790717029801	1096.524085713716	929.564263577268	622.638390041408	1071.131617338340	937.986851031757	347.753713070959	1083.587530498696	715.941321485265	601.160813563502	969.986719264234	629.833455026396	660.967511296837	1026.773455386658	559.125249155307	583.637640148769	1003.211322459268	474.737293676255	587.417274107358	1143.267395412828	760.947630699512	382.524325698358	1092.187558587076	630.768786280473	308.292759918072	1197.462201558934	575.316707816158	369.230785377634	1220.871781401962	507.764959420829	368.559108393940	1204.821133440937	434.444524523462	357.890776824891	1135.614000088216	304.814013468365	311.885290787173	1221.812983401113	205.777431781841	366.854511900889	959.702472824083	395.230061956946	593.115201627009	872.651289954368	304.152724707992	655.623531605249	898.454774880990	204.199749167263	590.246944943371	744.503779233902	48.761881439897	557.722767048698	917.891426329987	97.077502612518	593.491622728660	827.914169852497	38.283132863108	630.911197675087	1036.190018557778	39.395271858422	619.545113557050	1132.149459098607	37.580047408911	409.655472054231	1203.474393740567	37.382072519639	326.626309152549	1282.503226321328	104.049626828713	348.528262507498	1412.275048194264	60.003962223993	316.922865885006	861.726102644780	1119.256386917321	233.761608878895	794.620599373488	869.011226352623	259.986602726606	1263.651863128808	1127.209339843650	753.219846625175	1479.528191607808	1202.268556754884	646.710823956495	
127	59.533000000000	870.319506144294	1002.660695914679	512.187046719559	1044.864616316668	1418.539890052585	314.649235971270	1164.228099127562	1341.002574869726	461.399278587327	1107.540312877373	1423.725253189428	641.878566056470	1069.891622066286	1478.761266975709	468.273211430927	1097.231157482844	928.740870509792	620.516289651958	1072.793865262443	937.400591308146	345.761696503135	1084.054418649686	715.000427869978	599.451133856863	969.872921915181	629.345006181372	659.036406367863	1026.636053517306	558.110695894710	582.065697652650	1002.295005031327	473.188836619388	585.788770926608	1145.050187577419	759.879289606010	381.913629100749	1093.418084118634	630.343193360814	307.797428572185	1197.770742017199	574.279720228382	369.993142769846	1219.902815036438	505.777571795220	369.683038199810	1203.360933597497	432.329053606782	358.484209868064	1132.906170968475	303.665261838217	311.726372797022	1216.613900438699	203.397970474418	368.056673307524	957.378700532828	394.226853605159	591.767607231646	868.826468230076	304.869957581995	654.686663267186	892.939186743605	204.212428284380	589.822559347966	736.818127960920	50.385770696866	558.049952252781	910.660962675598	97.362111584679	593.753359226730	820.253158408784	38.947381784108	631.196883609572	1028.481164618666	39.029999122200	619.608426655066	1123.146375706692	37.231805481836	410.258167246769	1194.871226680249	36.364779040629	327.461604785210	1275.318406383035	101.023641835527	350.586457192208	1404.619573574637	54.375482111131	319.326279938164	862.307409568946	1118.901701245730	231.037324768757	795.195109488369	868.545540215040	257.944984631821	1264.957661629505	1128.356973872910	751.215406880899	1477.032549329351	1211.393868043454	643.907779103847	
